<?xml version="1.0" standalone="no"?>
<svg xmlns="http://www.w3.org/2000/svg" viewBox="0 0 161.5 29" width="161.5" height="29"><path fill="#295c3c" fill-rule="nonzero" d="M7.82 0.94L7.82 0.94Q10.49 0.94 12.19 2.42Q13.90 3.91 13.90 5.90L13.90 5.90Q13.90 7.46 12.91 8.48Q11.93 9.50 10.58 9.50Q9.24 9.50 8.33 8.64L8.33 8.64Q7.42 7.73 7.42 6.68Q7.42 5.64 7.87 4.94Q8.33 4.25 8.98 4.25L8.98 4.25Q9.34 4.25 9.58 4.45Q9.82 4.66 9.82 4.96Q9.82 5.26 9.48 5.72Q9.14 6.19 9.14 6.71Q9.14 7.22 9.55 7.57Q9.96 7.92 10.62 7.92Q11.28 7.92 11.72 7.40Q12.17 6.89 12.17 6.02L12.17 6.02Q12.17 4.75 11.02 3.70L11.02 3.70Q9.91 2.62 7.82 2.62L7.82 2.62Q5.26 2.62 3.60 4.88Q1.94 7.15 1.94 10.22Q1.94 13.30 3.67 15.64Q5.40 17.98 8.04 17.98L8.04 17.98Q9.22 17.98 10.24 17.66Q11.26 17.35 11.78 16.92L11.78 16.92Q13.06 15.86 13.33 15.86Q13.61 15.86 13.80 16.04Q13.99 16.22 13.99 16.49L13.99 16.49Q13.99 17.42 12.20 18.54Q10.42 19.66 8.02 19.66L8.02 19.66Q4.56 19.66 2.28 16.94L2.28 16.94Q0 14.18 0 10.26Q0 6.34 2.23 3.64Q4.46 0.94 7.82 0.94ZM18.60 9.02L18.60 9.02L18.41 14.30Q18.41 15.96 19.12 16.97Q19.82 17.98 21.05 17.98Q22.27 17.98 23.42 16.61L23.42 16.61Q24.55 15.22 25.03 13.49L25.03 13.49L24.96 8.28Q24.96 7.06 25.87 7.06L25.87 7.06Q26.98 7.06 26.98 8.70Q26.98 10.34 26.50 13.49L26.50 13.49Q26.50 15.24 26.75 16.40Q27 17.57 27.38 17.71L27.38 17.71Q27.53 17.78 27.73 17.81Q27.94 17.83 28.02 17.88Q28.10 17.93 28.10 18.07L28.10 18.07Q28.10 18.72 27.71 19.13Q27.31 19.54 26.71 19.54L26.71 19.54Q25.20 19.54 25.20 16.46L25.20 16.46Q23.42 19.54 20.74 19.54L20.74 19.54Q18.82 19.54 17.76 18.12L17.76 18.12Q16.70 16.66 16.70 14.62L16.70 14.62L16.85 10.99Q16.85 10.25 16.66 9.20Q16.46 8.16 16.46 7.90Q16.46 7.63 16.76 7.34Q17.06 7.06 17.50 7.06L17.50 7.06Q18.60 7.06 18.60 9.02ZM36.65 8.62L36.65 8.62Q34.13 8.62 32.50 12.77L32.50 12.77L32.50 16.58Q33.91 17.98 35.90 17.98L35.90 17.98Q37.44 17.98 38.60 16.57Q39.77 15.17 39.77 13.25Q39.77 11.33 38.94 9.97Q38.11 8.62 36.65 8.62ZM32.50 18.36L32.50 18.36Q32.45 20.18 32.45 21.40Q32.45 22.61 32.42 23.18L32.42 23.18Q32.38 24.17 32.21 24.43L32.21 24.43Q31.99 24.82 31.48 24.82Q30.96 24.82 30.65 24.41Q30.34 24 30.34 23.06Q30.34 22.13 30.41 21.29L30.41 21.29L30.70 18.43Q30.96 15.67 31.01 15.19L31.01 15.19L31.01 14.74L31.03 13.82L31.03 13.44Q31.03 12.43 30.82 10.49Q30.60 8.54 30.60 8.11Q30.60 7.68 30.86 7.37Q31.13 7.06 31.54 7.06Q31.94 7.06 32.21 7.37Q32.47 7.68 32.47 8.04Q32.47 8.40 32.46 9.14Q32.45 9.89 32.45 10.15L32.45 10.15Q33.29 8.59 34.28 7.82Q35.28 7.06 36.82 7.06Q38.35 7.06 39.46 8.06L39.46 8.06Q41.54 9.91 41.54 13.03L41.54 13.03Q41.54 15.65 39.96 17.59Q38.38 19.54 35.90 19.54L35.90 19.54Q34.10 19.54 32.50 18.36ZM51.19 13.32Q51.19 15.31 52.30 16.70Q53.40 18.10 55.07 18.10Q56.74 18.10 57.90 16.69Q59.06 15.29 59.06 13.30Q59.06 11.30 57.95 9.90Q56.83 8.50 55.19 8.50Q53.54 8.50 52.34 9.91L52.34 9.91Q51.19 11.33 51.19 13.32ZM51.07 17.82Q49.49 15.98 49.49 13.32Q49.49 10.66 51.10 8.80Q52.70 6.94 55.15 6.94Q57.60 6.94 59.18 8.77Q60.77 10.61 60.77 13.28Q60.77 15.96 59.15 17.81Q57.53 19.66 55.09 19.66Q52.66 19.66 51.07 17.82ZM63.12 7.25L63.12 7.25L64.32 7.30L64.32 5.26Q64.32 3.14 65.15 2.10Q65.98 1.06 67.15 1.06Q68.33 1.06 69.11 1.49Q69.89 1.92 69.89 2.45L69.89 2.45Q69.89 3.24 69.22 3.24L69.22 3.24Q69.05 3.24 68.41 2.95Q67.78 2.66 67.42 2.66L67.42 2.66Q65.93 2.66 65.93 5.47L65.93 5.47L65.93 7.30L68.26 7.25Q68.64 7.25 68.90 7.45Q69.17 7.66 69.17 8.02L69.17 8.02Q69.17 8.74 68.26 8.74L68.26 8.74L65.93 8.69L66 17.30Q66 19.68 65.12 20.96Q64.25 22.25 63.32 22.25Q62.40 22.25 62.40 21.79L62.40 21.79Q62.40 21.60 62.58 21.42Q62.76 21.24 63.07 20.95Q63.38 20.66 63.60 20.35L63.60 20.35Q64.30 19.37 64.37 17.54Q64.44 15.72 64.44 13.27Q64.44 10.82 64.34 8.69L64.34 8.69L63.12 8.74Q62.21 8.74 62.21 8.02L62.21 8.02Q62.21 7.66 62.47 7.45Q62.74 7.25 63.12 7.25ZM83.02 18.62Q83.02 18.89 82.74 19.21Q82.46 19.54 82.02 19.54Q81.58 19.54 81.32 19.21Q81.07 18.89 81.06 18.62Q81.05 18.36 81.05 18.10Q81.05 17.83 81.10 16.28Q81.14 14.74 81.14 10.30Q81.14 5.86 81.41 4.32L81.41 4.32Q80.14 4.22 78.60 3.77L78.60 3.77Q75.77 2.90 75.77 1.90L75.77 1.90Q75.74 1.34 76.25 1.08L76.25 1.08Q76.49 0.96 76.72 0.96Q76.94 0.96 77.18 1.15L77.18 1.15Q77.54 1.34 77.81 1.54L77.81 1.54Q78.74 2.18 81.77 2.64L81.77 2.64Q82.39 1.37 83.71 0.68Q85.03 0 86.53 0Q88.03 0 88.85 0.67L88.85 0.67Q89.71 1.32 89.71 2.20Q89.71 3.07 88.73 3.82Q87.74 4.56 85.25 4.56L85.25 4.56Q83.88 4.56 83.11 4.49L83.11 4.49Q82.87 5.21 82.87 9.31Q82.87 13.42 82.94 15.89Q83.02 18.36 83.02 18.62ZM86.35 1.68L86.35 1.68Q84.34 1.68 83.52 2.83L83.52 2.83Q84.14 2.95 84.89 2.95Q85.63 2.95 86.77 2.74Q87.91 2.52 87.91 2.18L87.91 2.18Q87.91 1.68 86.35 1.68ZM96.31 8.50L96.31 8.50Q94.73 8.50 93.66 9.68Q92.59 10.87 92.26 12.46L92.26 12.46Q93.55 12.84 95.17 12.84Q96.79 12.84 97.78 12.29Q98.76 11.74 98.76 10.78Q98.76 9.82 98.10 9.16Q97.44 8.50 96.31 8.50ZM95.28 14.35L95.28 14.35Q94.03 14.35 92.23 13.99L92.23 13.99Q92.38 15.70 93.49 16.90Q94.61 18.10 96.10 18.10Q97.58 18.10 98.54 17.36Q99.50 16.63 99.80 16.63Q100.10 16.63 100.28 16.81Q100.46 16.99 100.46 17.26L100.46 17.26Q100.46 17.93 99.08 18.79Q97.70 19.66 96.10 19.66L96.10 19.66Q93.60 19.66 92.12 17.89Q90.65 16.13 90.55 13.68L90.55 13.68Q89.28 13.27 89.28 12.43L89.28 12.43Q89.28 11.88 89.69 11.71L89.69 11.71Q89.83 11.66 90.06 11.66Q90.29 11.66 90.70 11.88L90.70 11.88Q91.25 9.70 92.70 8.32Q94.15 6.94 96.11 6.94Q98.06 6.94 99.26 8.02Q100.46 9.10 100.46 10.84Q100.46 12.58 98.98 13.46Q97.49 14.35 95.28 14.35ZM112.85 13.49L112.85 13.49Q112.85 15.24 113.10 16.40Q113.35 17.57 113.74 17.71L113.74 17.71Q113.88 17.78 114.08 17.81Q114.29 17.83 114.37 17.88Q114.46 17.93 114.46 18.07L114.46 18.07Q114.46 18.74 114.10 19.14Q113.74 19.54 113.05 19.54Q112.37 19.54 111.98 18.66Q111.60 17.78 111.60 16.37L111.60 16.37Q110.95 17.76 109.80 18.65Q108.65 19.54 107.20 19.54Q105.74 19.54 104.71 18.58L104.71 18.58Q102.79 16.80 102.79 13.56L102.79 13.56Q102.79 10.94 104.30 9Q105.82 7.06 108.19 7.06L108.19 7.06Q109.99 7.06 111.31 8.28L111.31 8.28Q111.31 7.06 112.22 7.06L112.22 7.06Q113.33 7.06 113.33 8.70Q113.33 10.34 112.85 13.49ZM111.46 13.70L111.46 13.70L111.34 10.01Q109.92 8.62 108.34 8.62Q106.75 8.62 105.62 10.03Q104.50 11.45 104.50 13.45Q104.50 15.46 105.24 16.72Q105.98 17.98 107.30 17.98Q108.62 17.98 109.74 16.80Q110.86 15.62 111.46 13.70Z" transform="translate(0, 2.092)"></path><line x1="123.45600000000002" y1="2%" x2="123.45600000000002" y2="98%" stroke="#295c3c" stroke-linecap="round"></line><g fill="#69a38e" color="#69a38e" transform="translate(132.45600000000002 0) scale(0.29)"><svg width="100.0" height="100.0" x="0.0" y="0.0" viewBox="0 0 100 100"><path d="M86.328,28.038c-2.521,0-4.877,0.708-6.88,1.934c-4.048-4.513-9.688-7.565-16.037-8.278  c1.163-0.872,1.918-2.258,1.918-3.823c0-2.641-2.141-4.782-4.782-4.782s-4.782,2.141-4.782,4.782c0,1.565,0.756,2.951,1.918,3.823  c-9.368,1.052-17.19,7.2-20.634,15.609c-0.187,0.002-0.411-0.054-0.66-0.228c-0.738-0.517-8.192-11.071-11.883-10.628l-5.314,4.207  c0,0-0.074,1.107,1.181,0.664c1.255-0.443,3.174-0.148,3.764,1.771s2.952,10.776,4.059,13.802c1.026,2.804,3.829,9.976,9.754,11.602  c2.337,4.552,6.008,8.307,10.498,10.746h24.197c5.791-3.145,10.218-8.479,12.178-14.89c0.494,0.056,0.995,0.088,1.504,0.088  c7.29,0,13.199-5.91,13.199-13.199C99.527,33.948,93.618,28.038,86.328,28.038z M86.328,49.997c-0.195,0-0.389-0.009-0.581-0.021  c0.121-1.004,0.186-2.024,0.186-3.06c0-4.904-1.395-9.481-3.803-13.363c1.247-0.684,2.678-1.074,4.198-1.074  c4.83,0,8.759,3.929,8.759,8.759S91.158,49.997,86.328,49.997z"></path><g><path d="M10.496,82.011h17.87c1.031,0,1.866-0.836,1.866-1.866v-2.508l0,0c3.914,0,7.087-3.173,7.087-7.087   c0-3.914-3.173-7.087-7.087-7.087l0,0l0,0H8.629v16.681C8.629,81.175,9.465,82.011,10.496,82.011z M30.232,65.486   c2.793,0,5.065,2.272,5.065,5.065s-2.272,5.065-5.065,5.065l0,0V65.486L30.232,65.486z"></path><path d="M0.469,83.082v1.962c0,1.031,0.836,1.866,1.866,1.866h34.437c1.031,0,1.866-0.836,1.866-1.866v-1.962H0.469z"></path></g></svg></g></svg>