<?xml version="1.0" standalone="no"?>
<svg xmlns="http://www.w3.org/2000/svg" viewBox="0 0 114 78" width="114" height="78"><g fill="#61A845" color="#61A845" transform="translate(39.308 0) scale(0.35) "><svg width="100.0" height="100.0" x="0.0" y="0.0" viewBox="0 0 100 100"><path fill="currentColor" d="M32.475,19.907c-1.084-1.625-2.434-3.65-2.434-7.405c0-6.665,2.209-11.161,2.303-11.349  c0.513-1.029,1.762-1.448,2.795-0.932c1.025,0.513,1.444,1.76,0.936,2.789c-0.021,0.038-1.868,3.864-1.868,9.491  c0,2.494,0.765,3.642,1.733,5.094c1.084,1.625,2.433,3.65,2.433,7.406c0,6.665-2.209,11.16-2.303,11.348  c-0.366,0.73-1.101,1.152-1.865,1.152c-0.312,0-0.631-0.071-0.93-0.22c-1.029-0.515-1.446-1.766-0.932-2.795  c0.016-0.032,1.864-3.857,1.864-9.485C34.208,22.507,33.443,21.359,32.475,19.907z M48.792,25.001c0,5.627-1.847,9.453-1.863,9.485  c-0.515,1.029-0.098,2.28,0.932,2.795c0.299,0.149,0.619,0.22,0.93,0.22c0.765,0,1.5-0.421,1.866-1.152  c0.094-0.188,2.304-4.683,2.304-11.348c0-3.756-1.35-5.78-2.434-7.406c-0.969-1.453-1.734-2.6-1.734-5.094  c0-5.627,1.847-9.454,1.868-9.491c0.509-1.029,0.09-2.276-0.936-2.789c-1.034-0.516-2.283-0.098-2.795,0.932  c-0.094,0.188-2.303,4.684-2.303,11.349c0,3.755,1.349,5.78,2.433,7.405C48.027,21.359,48.792,22.507,48.792,25.001z M63.375,25.001  c0,5.627-1.848,9.453-1.863,9.485c-0.515,1.029-0.098,2.28,0.932,2.795c0.299,0.149,0.618,0.22,0.93,0.22  c0.766,0,1.499-0.421,1.865-1.152c0.094-0.188,2.304-4.683,2.304-11.348c0-3.756-1.35-5.78-2.434-7.406  c-0.969-1.453-1.733-2.6-1.733-5.094c0-5.627,1.848-9.454,1.867-9.491c0.509-1.029,0.09-2.276-0.936-2.789  c-1.033-0.516-2.282-0.098-2.795,0.932c-0.094,0.188-2.304,4.684-2.304,11.349c0,3.755,1.35,5.78,2.434,7.405  C62.61,21.359,63.375,22.507,63.375,25.001z M95.667,59.27v6.355c0,5.172-4.206,9.375-9.375,9.375c-1.38,0-2.682-0.317-3.864-0.854  c-3.312,5.626-8.108,10.271-13.881,13.354h12.536c3.446,0,6.25,2.804,6.25,6.25s-2.804,6.25-6.25,6.25h-62.5  c-3.447,0-6.25-2.804-6.25-6.25s2.803-6.25,6.25-6.25H31.12c-11.166-5.965-18.787-17.729-18.787-31.25V41.668h75v8.333  C91.5,50.001,95.667,54.458,95.667,59.27z M51.916,91.667H47.75H18.583c-1.147,0-2.083,0.936-2.083,2.083  c0,1.149,0.936,2.083,2.083,2.083h62.5c1.147,0,2.084-0.934,2.084-2.083c0-1.147-0.937-2.083-2.084-2.083H51.916z M83.167,45.834  H72.75v7.291h1.458c1.494,0,2.709,1.247,2.709,2.779v6.944c0,1.531-1.215,2.776-2.709,2.776h-5c-1.494,0-2.708-1.245-2.708-2.776  v-6.944c0-1.532,1.214-2.779,2.708-2.779h1.459v-7.291H16.5V56.25c0,17.232,14.018,31.25,31.25,31.25h4.166  c17.232,0,31.251-14.018,31.251-31.25V45.834z M69.208,55.208c-0.344,0-0.625,0.313-0.625,0.696v6.944  c0,0.384,0.281,0.693,0.625,0.693h5c0.345,0,0.625-0.31,0.625-0.693v-6.944c0-0.383-0.28-0.696-0.625-0.696H69.208z M91.5,59.27  c0-2.515-2.083-5.103-4.167-5.103v6.144c0,4.967-1.054,6.732-2.913,10.16c0.582,0.229,1.208,0.362,1.872,0.362  c2.872,0,5.208-2.335,5.208-5.208V59.27z"></path></svg></g><line x1="40.358000000000004" y1="41" x2="73.25800000000001" y2="41" stroke="#2B541A" stroke-linecap="round"></line><path fill="#2B541A" fill-rule="nonzero" d="M14.21 16.01L14.21 16.01Q14.33 15.86 14.63 15.86Q14.93 15.86 15.12 16.08Q15.31 16.30 15.31 16.90Q15.31 17.50 14.92 18.49Q14.52 19.49 13.75 20.48Q12.98 21.48 11.63 22.13Q10.27 22.78 8.59 22.78L8.59 22.78Q4.70 22.78 2.35 20.27Q0 17.76 0 13.12Q0 8.47 2.22 6.13Q4.44 3.79 8.04 3.79L8.04 3.79Q10.37 3.79 11.69 4.99Q13.01 6.19 13.01 7.66L13.01 7.66Q13.01 8.26 12.65 8.62Q12.29 8.98 11.93 8.98L11.93 8.98Q11.26 8.98 11.02 8.69L11.02 8.69Q11.16 8.33 11.16 7.80L11.16 7.80Q11.16 6.50 10.33 5.74Q9.50 4.97 7.92 4.97L7.92 4.97Q5.54 4.97 3.88 7.24Q2.21 9.50 2.21 13.25Q2.21 16.99 4.06 19.28Q5.90 21.58 8.50 21.58Q11.09 21.58 12.65 20.00Q14.21 18.43 14.21 16.01ZM20.64 12.10Q20.64 11.38 21.05 11.00Q21.46 10.63 22.03 10.63Q22.61 10.63 22.94 10.97L22.94 10.97L22.94 17.86Q22.94 19.22 23.38 19.92Q23.81 20.62 24.55 20.62L24.55 20.62Q25.30 20.62 25.99 19.75L25.99 19.75Q26.81 18.72 26.81 15.94L26.81 15.94Q26.83 15.79 27.17 15.79L27.17 15.79Q27.60 15.79 27.60 17.06L27.60 17.06Q27.60 19.10 26.72 20.33Q25.85 21.55 24.26 21.55L24.26 21.55Q21.74 21.55 20.95 19.27L20.95 19.27Q20.02 21.55 17.52 21.55L17.52 21.55Q16.03 21.55 15.12 20.65Q14.21 19.75 14.21 18.07L14.21 18.07L14.21 12.10Q14.21 11.38 14.57 11.00Q14.93 10.63 15.48 10.63Q16.03 10.63 16.37 10.97L16.37 10.97L16.37 17.86Q16.37 20.71 17.81 20.71L17.81 20.71Q18.89 20.71 19.76 19.42Q20.64 18.12 20.64 15.77L20.64 15.77L20.64 12.10ZM36.17 12.67L36.17 12.67Q36.96 14.04 36.96 16.36Q36.96 18.67 35.80 20.10Q34.63 21.53 32.76 21.53L32.76 21.53Q31.66 21.53 30.80 20.76Q29.95 19.99 29.95 18.31L29.95 18.31Q29.95 14.38 33.86 12.43L33.86 12.43Q33.24 11.57 32.12 11.57Q31.01 11.57 30 12.67Q28.99 13.78 28.99 15.98L28.99 15.98L28.99 30.26Q28.75 30.60 28.15 30.60Q27.55 30.60 27.19 30.23Q26.83 29.86 26.83 29.14L26.83 29.14L26.83 10.97Q27.07 10.63 27.67 10.63Q28.27 10.63 28.63 11.00Q28.99 11.38 28.99 12.10L28.99 12.10L28.99 12.62Q30.24 10.63 32.29 10.63Q34.34 10.63 35.50 11.78L35.50 11.78Q38.02 10.97 41.14 10.97L41.14 10.97Q41.78 10.97 41.78 11.50L41.78 11.50L41.64 11.86Q38.74 11.86 36.17 12.67ZM32.71 20.59L32.71 20.59Q34.68 20.59 34.68 16.68L34.68 16.68Q34.68 14.62 34.34 13.44L34.34 13.44Q31.18 15.17 31.18 18.38L31.18 18.38Q31.18 19.44 31.63 20.02Q32.09 20.59 32.71 20.59ZM53.36 10.63Q55.49 10.63 56.83 12.05Q58.18 13.46 58.18 15.90Q58.18 18.34 56.92 19.94Q55.66 21.55 53.54 21.55Q51.43 21.55 50.03 20.10Q48.62 18.65 48.62 16.07Q48.62 13.49 49.93 12.06Q51.24 10.63 53.36 10.63ZM53.38 11.57L53.38 11.57Q52.73 11.57 52.26 11.89Q51.79 12.22 51.79 12.82L51.79 12.82Q51.79 14.35 52.99 15.76Q54.19 17.16 55.85 17.62L55.85 17.62Q55.90 16.70 55.90 16.06L55.90 16.06Q55.90 13.56 55.37 12.56Q54.84 11.57 53.38 11.57ZM50.90 16.06L50.90 16.06Q50.90 18.50 51.52 19.56Q52.13 20.62 53.52 20.62L53.52 20.62Q54.48 20.62 55.00 20.12Q55.51 19.63 55.70 18.53L55.70 18.53Q54.14 18.19 52.84 17.11Q51.53 16.03 50.93 14.71L50.93 14.71Q50.90 15.12 50.90 16.06ZM65.62 11.81L65.62 11.81L61.99 11.81L61.99 30.26Q61.75 30.60 61.15 30.60Q60.55 30.60 60.19 30.23Q59.83 29.86 59.83 29.14L59.83 29.14L59.83 8.06Q59.83 5.02 60.48 3.58Q61.13 2.14 62.78 2.14L62.78 2.14Q65.16 2.14 65.16 5.35L65.16 5.35Q65.16 9.05 62.66 10.97L62.66 10.97L64.80 10.97Q65.30 10.97 65.46 11.16Q65.62 11.35 65.62 11.81ZM64.13 5.38L64.13 5.38Q64.13 3.07 62.98 3.07L62.98 3.07Q62.66 3.07 62.50 3.28Q62.33 3.48 62.23 4.32L62.23 4.32Q62.04 5.76 61.99 10.46L61.99 10.46Q64.13 8.90 64.13 5.38ZM92.30 0.36L92.30 0.36Q92.30 0 93.01 0Q93.72 0 94.46 0.78Q95.21 1.56 95.21 2.57L95.21 2.57Q95.21 6.26 89.71 6.26L89.71 6.26Q87.50 6.26 85.63 5.88L85.63 5.88L85.63 17.38Q85.63 19.90 84.68 21.38Q83.74 22.87 81.83 22.87Q79.92 22.87 78.96 22.00Q78 21.12 78 19.68L78 19.68Q78 17.83 79.20 17.83L79.20 17.83Q79.49 17.83 79.70 17.98Q79.92 18.12 80.06 18.38L80.06 18.38Q79.87 18.89 79.87 19.87Q79.87 20.86 80.39 21.37Q80.90 21.89 81.70 21.89L81.70 21.89Q83.35 21.89 83.42 18.82L83.42 18.82L83.42 5.35Q81.84 4.90 80.35 4.22L80.35 4.22Q78.79 6.10 75.62 6.10L75.62 6.10Q74.33 6.10 73.51 5.53Q72.70 4.97 72.70 3.82L72.70 3.82Q72.70 1.51 75.58 1.51L75.58 1.51Q77.64 1.51 81.60 3.05L81.60 3.05Q83.06 3.60 85.28 4.08Q87.50 4.56 89.81 4.56Q92.11 4.56 92.95 4.06Q93.79 3.55 93.79 2.57L93.79 2.57Q93.79 1.97 93.47 1.52Q93.14 1.08 92.81 0.94L92.81 0.94L92.50 0.79Q92.30 0.65 92.30 0.36ZM75.60 4.99L75.60 4.99Q78.17 4.99 79.18 3.72L79.18 3.72Q76.61 2.59 75.71 2.59Q74.81 2.59 74.41 2.92Q74.02 3.24 74.02 3.74L74.02 3.74Q74.02 4.99 75.60 4.99ZM100.13 16.08L100.13 16.08Q100.63 16.08 100.63 16.85L100.63 16.85Q100.63 18.62 99.40 20.09Q98.16 21.55 95.64 21.55Q93.12 21.55 91.60 20.20Q90.07 18.84 90.07 16.21Q90.07 13.58 91.42 12.11Q92.76 10.63 94.85 10.63L94.85 10.63Q96.36 10.63 97.06 11.44Q97.75 12.24 97.75 13.34L97.75 13.34Q97.75 15.14 96.25 16.33Q94.75 17.52 92.42 17.52L92.42 17.52Q92.64 19.06 93.54 19.84Q94.44 20.62 95.92 20.62Q97.39 20.62 98.58 19.50Q99.77 18.38 99.77 16.22L99.77 16.22Q99.79 16.08 100.13 16.08ZM92.35 16.42L92.35 16.42L92.35 16.63Q93.84 16.44 94.93 15.70Q96.02 14.95 96.02 13.49L96.02 13.49Q96.02 12.55 95.62 12.06Q95.21 11.57 94.46 11.57L94.46 11.57Q93.34 11.57 92.84 12.67Q92.35 13.78 92.35 16.42ZM106.94 11.33L106.94 11.33Q107.26 10.63 107.94 10.63Q108.62 10.63 108.96 10.97L108.96 10.97L108.96 17.86Q108.96 19.22 109.39 19.92Q109.82 20.62 110.57 20.62L110.57 20.62Q112.82 20.62 112.82 15.94L112.82 15.94Q112.85 15.79 113.18 15.79L113.18 15.79Q113.62 15.79 113.62 17.06L113.62 17.06Q113.62 19.10 112.74 20.33Q111.86 21.55 110.28 21.55L110.28 21.55Q107.86 21.55 107.06 19.42L107.06 19.42Q106.61 20.40 105.82 20.98Q105.02 21.55 104.02 21.55L104.02 21.55Q99.82 21.55 99.82 16.06L99.82 16.06Q99.82 13.27 101.12 11.95Q102.43 10.63 104.59 10.63L104.59 10.63Q106.25 10.63 106.94 11.33ZM102.43 19.01Q102.77 20.06 103.20 20.34Q103.63 20.62 104.35 20.62Q105.07 20.62 105.92 19.72Q106.78 18.82 106.78 17.38L106.78 17.38L106.78 14.09Q106.78 12.96 106.19 12.26Q105.60 11.57 104.87 11.57Q104.14 11.57 103.70 11.71Q103.27 11.86 102.89 12.31L102.89 12.31Q102.10 13.18 102.10 16.06L102.10 16.06Q102.10 17.95 102.43 19.01Z" transform="translate(0, 47)"></path></svg>